<?xml version="1.0" encoding="utf-8"?>
<!-- Generator: Adobe Illustrator 25.0.1, SVG Export Plug-In . SVG Version: 6.00 Build 0)  -->
<svg version="1.1" id="Capa_1" xmlns="http://www.w3.org/2000/svg" xmlns:xlink="http://www.w3.org/1999/xlink" x="0px" y="0px"
	 viewBox="0 0 1000 400" style="enable-background:new 0 0 1000 400;" xml:space="preserve">
<style type="text/css">
	.st0{opacity:0.2;}
	.st1{fill:#FDF1EC;}
	.st2{fill:#C0BC8B;}
	.st3{fill:#E1DDDD;}
	.st4{fill:#E5DCC6;}
	.st5{fill:#CFD1D4;}
	.st6{fill:#F2E9E6;}
	.st7{fill:#89A1AF;}
	.st8{fill:#B4BEC5;}
	.st9{fill:#ECE5E3;}
	.st10{fill:#93A8B4;}
	.st11{fill:#E5E1E0;}
	.st12{fill:#BEC6CB;}
	.st13{fill:#AAB8C0;}
	.st14{fill:#D2CCA8;}
	.st15{fill:#7492A4;}
	.st16{fill:#8EA5B2;}
	.st17{fill:#F8EDE5;}
	.st18{fill:#BBC3C9;}
	.st19{fill:#A5B5BE;}
	.st20{fill:#B7B47D;}
	.st21{fill:#F0E8E5;}
	.st22{fill:#A9A866;}
	.st23{fill:#AAA967;}
	.st24{fill:#F1E7DA;}
	.st25{fill:#8DA4B1;}
	.st26{fill:#AFBBC3;}
	.st27{fill:#D3CCA8;}
	.st28{fill:#E2D9C0;}
	.st29{fill:#BFC6CC;}
	.st30{fill:#CBCED2;}
	.st31{fill:#C9CDD0;}
	.st32{fill:#DBDADA;}
	.st33{fill:#A0A058;}
	.st34{fill:#A9B7C0;}
	.st35{fill:#EDE3D3;}
	.st36{fill:#BFC6CB;}
	.st37{fill:#B1BDC4;}
	.st38{fill:#C1C8CC;}
	.st39{fill:#F7ECE3;}
	.st40{fill:#A0A158;}
	.st41{fill:#BCC4CA;}
	.st42{fill:#FBF0EB;}
	.st43{fill:#9AADB8;}
	.st44{fill:#F7EDE9;}
	.st45{fill:#BDBA86;}
	.st46{fill:#B3BEC5;}
	.st47{fill:#CBCED1;}
	.st48{fill:#C9C499;}
	.st49{fill:#D6CFAE;}
	.st50{fill:#7A96A7;}
	.st51{fill:#F8EDE4;}
	.st52{fill:#8FA5B2;}
	.st53{fill:#7895A6;}
	.st54{fill:#A3A35D;}
	.st55{fill:#D0D2D4;}
	.st56{fill:#F5EAE0;}
	.st57{fill:#ACB9C1;}
	.st58{fill:#B7B47C;}
	.st59{fill:#EAE0CD;}
	.st60{fill:#A6A662;}
	.st61{fill:#D9D8D9;}
	.st62{fill:#F9EDE6;}
	.st63{fill:#859EAD;}
	.st64{fill:#DCD4B8;}
	.st65{fill:#EFE7E5;}
	.st66{fill:#EAE4E2;}
	.st67{fill:#B3B176;}
	.st68{fill:#F9EEEA;}
	.st69{fill:#DAD3B5;}
	.st70{fill:#B4B278;}
	.st71{fill:#E3DAC3;}
	.st72{fill:#D4CDAA;}
	.st73{fill:#D5D5D7;}
	.st74{fill:#B8B57F;}
	.st75{fill:#D3CDAA;}
	.st76{fill:#B9B680;}
	.st77{fill:#AFAD70;}
	.st78{fill:#CFC9A2;}
	.st79{fill:#ACAB6B;}
	.st80{fill:#8CA3B0;}
	.st81{fill:#91A6B3;}
	.st82{fill:#B7C1C7;}
	.st83{fill:#DCDADB;}
	.st84{fill:#E0DDDD;}
	.st85{fill:#F3E9DD;}
	.st86{fill:#C1C8CD;}
	.st87{fill:#E6DDC8;}
	.st88{fill:#9B9C50;}
	.st89{fill:#CDC79F;}
	.st90{fill:#AFAE71;}
	.st91{fill:#B6B47B;}
	.st92{fill:#DBD4B7;}
	.st93{fill:#C5CBCF;}
	.st94{fill:#E9E0CD;}
	.st95{fill:#CAC59A;}
	.st96{fill:#8AA2B0;}
	.st97{fill:#C5C093;}
	.st98{fill:#DDD5B9;}
	.st99{fill:#6F8FA1;}
	.st100{fill:#B1BCC4;}
	.st101{fill:#F6EBE1;}
	.st102{fill:#9CAEB9;}
	.st103{fill:#BEBA88;}
	.st104{fill:#D1CBA6;}
	.st105{fill:#BAB781;}
	.st106{fill:#E5DCC5;}
	.st107{fill:#D8D1B1;}
	.st108{fill:#C3C9CE;}
	.st109{fill:#E0D7BD;}
	.st110{fill:#E9E3E2;}
	.st111{fill:#DCDADA;}
	.st112{fill:#9FB0BB;}
	.st113{fill:#BBB884;}
	.st114{fill:#7F9AAA;}
	.st115{fill:#BDB985;}
	.st116{fill:#AAA968;}
	.st117{fill:#A4A35E;}
	.st118{fill:#95A9B5;}
	.st119{fill:#CDD0D3;}
	.st120{fill:#FAEEE7;}
	.st121{fill:#9D9E53;}
	.st122{fill:#D3CDA9;}
	.st123{fill:#E5E0DF;}
	.st124{fill:#CED1D3;}
	.st125{fill:#BFBC8A;}
	.st126{fill:#E8DFCB;}
</style>
<g transform="scale(1.1869436201780414)" class="st0">
	<rect x="0" y="0" class="st1" width="842.5" height="337"/>
	<rect x="0" y="0" class="st1" width="84.2" height="84.2"/>
	<rect y="0" class="st2" width="42.1" height="42.1"/>
	<rect y="0" class="st3" width="42.1" height="42.1"/>
	<rect x="42.1" y="0" class="st4" width="42.1" height="42.1"/>
	<rect x="42.1" y="0" class="st5" width="42.1" height="42.1"/>
	<rect y="42.1" class="st6" width="42.1" height="42.1"/>
	<rect y="42.1" class="st7" width="42.1" height="42.1"/>
	<rect x="42.1" y="42.1" class="st8" width="42.1" height="42.1"/>
	<rect x="42.1" y="42.1" class="st9" width="42.1" height="42.1"/>
	<rect x="84.2" y="0" class="st1" width="84.2" height="84.2"/>
	<rect x="84.2" y="0" class="st10" width="42.1" height="42.1"/>
	<rect x="84.2" y="0" class="st11" width="42.1" height="42.1"/>
	<rect x="84.2" y="42.1" class="st12" width="42.1" height="42.1"/>
	<rect x="84.2" y="42.1" class="st13" width="42.1" height="42.1"/>
	<rect x="126.4" y="42.1" class="st14" width="42.1" height="42.1"/>
	<rect x="126.4" y="42.1" class="st15" width="42.1" height="42.1"/>
	<rect x="337" y="0" class="st1" width="84.2" height="84.2"/>
	<rect x="337" y="0" class="st16" width="42.1" height="42.1"/>
	<rect x="337" y="0" class="st17" width="42.1" height="42.1"/>
	<rect x="379.1" y="0" class="st18" width="42.1" height="42.1"/>
	<rect x="379.1" y="0" class="st19" width="42.1" height="42.1"/>
	<rect x="379.1" y="42.1" class="st20" width="42.1" height="42.1"/>
	<rect x="379.1" y="42.1" class="st21" width="42.1" height="42.1"/>
	<rect x="421.2" y="0" class="st1" width="84.2" height="84.2"/>
	<rect x="421.2" y="0" class="st22" width="42.1" height="42.1"/>
	<rect x="421.2" y="0" class="st23" width="42.1" height="42.1"/>
	<rect x="463.4" y="0" class="st24" width="42.1" height="42.1"/>
	<rect x="463.4" y="0" class="st25" width="42.1" height="42.1"/>
	<rect x="463.4" y="42.1" class="st26" width="42.1" height="42.1"/>
	<rect x="463.4" y="42.1" class="st2" width="42.1" height="42.1"/>
	<rect x="589.7" y="0" class="st1" width="84.2" height="84.2"/>
	<rect x="589.7" y="0" class="st27" width="42.1" height="42.1"/>
	<rect x="589.7" y="0" class="st28" width="42.1" height="42.1"/>
	<rect x="631.9" y="0" class="st29" width="42.1" height="42.1"/>
	<rect x="631.9" y="0" class="st30" width="42.1" height="42.1"/>
	<rect x="589.7" y="42.1" class="st31" width="42.1" height="42.1"/>
	<rect x="589.7" y="42.1" class="st32" width="42.1" height="42.1"/>
	<rect x="674" y="0" class="st1" width="84.2" height="84.2"/>
	<rect x="674" y="0" class="st33" width="42.1" height="42.1"/>
	<rect x="674" y="0" class="st34" width="42.1" height="42.1"/>
	<rect x="716.1" y="0" class="st35" width="42.1" height="42.1"/>
	<rect x="716.1" y="0" class="st2" width="42.1" height="42.1"/>
	<rect x="758.2" y="0" class="st1" width="84.2" height="84.2"/>
	<rect x="758.2" y="0" class="st36" width="42.1" height="42.1"/>
	<rect x="758.2" y="0" class="st37" width="42.1" height="42.1"/>
	<rect x="800.4" y="0" class="st38" width="42.1" height="42.1"/>
	<rect x="800.4" y="0" class="st39" width="42.1" height="42.1"/>
	<rect x="758.2" y="42.1" class="st40" width="42.1" height="42.1"/>
	<rect x="758.2" y="42.1" class="st41" width="42.1" height="42.1"/>
	<rect x="168.5" y="84.2" class="st1" width="84.2" height="84.2"/>
	<rect x="210.6" y="84.2" class="st42" width="42.1" height="42.1"/>
	<rect x="210.6" y="84.2" class="st32" width="42.1" height="42.1"/>
	<rect x="168.5" y="126.4" class="st43" width="42.1" height="42.1"/>
	<rect x="168.5" y="126.4" class="st44" width="42.1" height="42.1"/>
	<rect x="252.7" y="84.2" class="st1" width="84.2" height="84.2"/>
	<rect x="252.7" y="84.2" class="st45" width="42.1" height="42.1"/>
	<rect x="252.7" y="84.2" class="st46" width="42.1" height="42.1"/>
	<rect x="294.9" y="84.2" class="st47" width="42.1" height="42.1"/>
	<rect x="294.9" y="84.2" class="st48" width="42.1" height="42.1"/>
	<rect x="252.7" y="126.4" class="st49" width="42.1" height="42.1"/>
	<rect x="252.7" y="126.4" class="st50" width="42.1" height="42.1"/>
	<rect x="294.9" y="126.4" class="st51" width="42.1" height="42.1"/>
	<rect x="294.9" y="126.4" class="st52" width="42.1" height="42.1"/>
	<rect x="337" y="84.2" class="st1" width="84.2" height="84.2"/>
	<rect x="337" y="84.2" class="st53" width="42.1" height="42.1"/>
	<rect x="337" y="84.2" class="st54" width="42.1" height="42.1"/>
	<rect x="379.1" y="84.2" class="st55" width="42.1" height="42.1"/>
	<rect x="379.1" y="84.2" class="st39" width="42.1" height="42.1"/>
	<rect x="337" y="126.4" class="st56" width="42.1" height="42.1"/>
	<rect x="337" y="126.4" class="st57" width="42.1" height="42.1"/>
	<rect x="589.7" y="84.2" class="st1" width="84.2" height="84.2"/>
	<rect x="631.9" y="84.2" class="st58" width="42.1" height="42.1"/>
	<rect x="631.9" y="84.2" class="st59" width="42.1" height="42.1"/>
	<rect x="589.7" y="126.4" class="st60" width="42.1" height="42.1"/>
	<rect x="589.7" y="126.4" class="st61" width="42.1" height="42.1"/>
	<rect x="631.9" y="126.4" class="st62" width="42.1" height="42.1"/>
	<rect x="631.9" y="126.4" class="st63" width="42.1" height="42.1"/>
	<rect x="758.2" y="84.2" class="st1" width="84.2" height="84.2"/>
	<rect x="758.2" y="84.2" class="st64" width="42.1" height="42.1"/>
	<rect x="758.2" y="84.2" class="st65" width="42.1" height="42.1"/>
	<rect x="800.4" y="84.2" class="st66" width="42.1" height="42.1"/>
	<rect x="800.4" y="84.2" class="st6" width="42.1" height="42.1"/>
	<rect x="758.2" y="126.4" class="st67" width="42.1" height="42.1"/>
	<rect x="758.2" y="126.4" class="st68" width="42.1" height="42.1"/>
	<rect x="0" y="168.5" class="st1" width="84.2" height="84.2"/>
	<rect y="168.5" class="st69" width="42.1" height="42.1"/>
	<rect y="168.5" class="st70" width="42.1" height="42.1"/>
	<rect y="210.6" class="st66" width="42.1" height="42.1"/>
	<rect y="210.6" class="st71" width="42.1" height="42.1"/>
	<rect x="84.2" y="168.5" class="st1" width="84.2" height="84.2"/>
	<rect x="84.2" y="168.5" class="st72" width="42.1" height="42.1"/>
	<rect x="84.2" y="168.5" class="st35" width="42.1" height="42.1"/>
	<rect x="168.5" y="168.5" class="st1" width="84.2" height="84.2"/>
	<rect x="210.6" y="168.5" class="st73" width="42.1" height="42.1"/>
	<rect x="210.6" y="168.5" class="st74" width="42.1" height="42.1"/>
	<rect x="168.5" y="210.6" class="st75" width="42.1" height="42.1"/>
	<rect x="168.5" y="210.6" class="st76" width="42.1" height="42.1"/>
	<rect x="210.6" y="210.6" class="st77" width="42.1" height="42.1"/>
	<rect x="210.6" y="210.6" class="st78" width="42.1" height="42.1"/>
	<rect x="252.7" y="168.5" class="st1" width="84.2" height="84.2"/>
	<rect x="252.7" y="168.5" class="st79" width="42.1" height="42.1"/>
	<rect x="252.7" y="168.5" class="st80" width="42.1" height="42.1"/>
	<rect x="294.9" y="210.6" class="st81" width="42.1" height="42.1"/>
	<rect x="294.9" y="210.6" class="st82" width="42.1" height="42.1"/>
	<rect x="505.5" y="168.5" class="st1" width="84.2" height="84.2"/>
	<rect x="505.5" y="168.5" class="st83" width="42.1" height="42.1"/>
	<rect x="505.5" y="168.5" class="st84" width="42.1" height="42.1"/>
	<rect x="547.6" y="168.5" class="st85" width="42.1" height="42.1"/>
	<rect x="547.6" y="168.5" class="st54" width="42.1" height="42.1"/>
	<rect x="505.5" y="210.6" class="st86" width="42.1" height="42.1"/>
	<rect x="505.5" y="210.6" class="st4" width="42.1" height="42.1"/>
	<rect x="547.6" y="210.6" class="st87" width="42.1" height="42.1"/>
	<rect x="547.6" y="210.6" class="st88" width="42.1" height="42.1"/>
	<rect x="589.7" y="168.5" class="st1" width="84.2" height="84.2"/>
	<rect x="589.7" y="210.6" class="st89" width="42.1" height="42.1"/>
	<rect x="589.7" y="210.6" class="st90" width="42.1" height="42.1"/>
	<rect x="631.9" y="210.6" class="st91" width="42.1" height="42.1"/>
	<rect x="631.9" y="210.6" class="st92" width="42.1" height="42.1"/>
	<rect x="758.2" y="168.5" class="st1" width="84.2" height="84.2"/>
	<rect x="758.2" y="210.6" class="st93" width="42.1" height="42.1"/>
	<rect x="758.2" y="210.6" class="st94" width="42.1" height="42.1"/>
	<rect x="800.4" y="210.6" class="st95" width="42.1" height="42.1"/>
	<rect x="800.4" y="210.6" class="st96" width="42.1" height="42.1"/>
	<rect x="0" y="252.7" class="st1" width="84.2" height="84.2"/>
	<rect y="252.7" class="st97" width="42.1" height="42.1"/>
	<rect y="252.7" class="st98" width="42.1" height="42.1"/>
	<rect y="294.9" class="st99" width="42.1" height="42.1"/>
	<rect y="294.9" class="st100" width="42.1" height="42.1"/>
	<rect x="42.1" y="294.9" class="st101" width="42.1" height="42.1"/>
	<rect x="42.1" y="294.9" class="st102" width="42.1" height="42.1"/>
	<rect x="84.2" y="252.7" class="st1" width="84.2" height="84.2"/>
	<rect x="84.2" y="252.7" class="st103" width="42.1" height="42.1"/>
	<rect x="84.2" y="252.7" class="st104" width="42.1" height="42.1"/>
	<rect x="126.4" y="252.7" class="st105" width="42.1" height="42.1"/>
	<rect x="126.4" y="252.7" class="st106" width="42.1" height="42.1"/>
	<rect x="84.2" y="294.9" class="st107" width="42.1" height="42.1"/>
	<rect x="84.2" y="294.9" class="st108" width="42.1" height="42.1"/>
	<rect x="126.4" y="294.9" class="st109" width="42.1" height="42.1"/>
	<rect x="126.4" y="294.9" class="st110" width="42.1" height="42.1"/>
	<rect x="168.5" y="252.7" class="st1" width="84.2" height="84.2"/>
	<rect x="210.6" y="252.7" class="st111" width="42.1" height="42.1"/>
	<rect x="210.6" y="252.7" class="st112" width="42.1" height="42.1"/>
	<rect x="421.2" y="252.7" class="st1" width="84.2" height="84.2"/>
	<rect x="421.2" y="252.7" class="st105" width="42.1" height="42.1"/>
	<rect x="421.2" y="252.7" class="st66" width="42.1" height="42.1"/>
	<rect x="463.4" y="252.7" class="st113" width="42.1" height="42.1"/>
	<rect x="463.4" y="252.7" class="st114" width="42.1" height="42.1"/>
	<rect x="463.4" y="294.9" class="st115" width="42.1" height="42.1"/>
	<rect x="463.4" y="294.9" class="st35" width="42.1" height="42.1"/>
	<rect x="505.5" y="252.7" class="st1" width="84.2" height="84.2"/>
	<rect x="505.5" y="252.7" class="st116" width="42.1" height="42.1"/>
	<rect x="505.5" y="252.7" class="st117" width="42.1" height="42.1"/>
	<rect x="547.6" y="252.7" class="st118" width="42.1" height="42.1"/>
	<rect x="547.6" y="252.7" class="st119" width="42.1" height="42.1"/>
	<rect x="674" y="252.7" class="st1" width="84.2" height="84.2"/>
	<rect x="674" y="252.7" class="st120" width="42.1" height="42.1"/>
	<rect x="674" y="252.7" class="st121" width="42.1" height="42.1"/>
	<rect x="716.1" y="252.7" class="st122" width="42.1" height="42.1"/>
	<rect x="716.1" y="252.7" class="st114" width="42.1" height="42.1"/>
	<rect x="674" y="294.9" class="st88" width="42.1" height="42.1"/>
	<rect x="674" y="294.9" class="st123" width="42.1" height="42.1"/>
	<rect x="716.1" y="294.9" class="st124" width="42.1" height="42.1"/>
	<rect x="716.1" y="294.9" class="st28" width="42.1" height="42.1"/>
	<rect x="758.2" y="252.7" class="st1" width="84.2" height="84.2"/>
	<rect x="758.2" y="252.7" class="st125" width="42.1" height="42.1"/>
	<rect x="758.2" y="252.7" class="st126" width="42.1" height="42.1"/>
	<rect x="800.4" y="294.9" class="st83" width="42.1" height="42.1"/>
	<rect x="800.4" y="294.9" class="st78" width="42.1" height="42.1"/>
</g>
</svg>
